# xmcd
#
# Track frame offsets: 
#        150
#        29612
#        51867
#        73632
#        101432
#        124162
#        151495
#        173352
#        195817
#        220502
#
# Disc length: 3591 seconds
#
# Revision: 7
# Processed by: cddbd v1.5.2PL0 Copyright (c) Steve Scherf et al.
# Submitted via: ExactAudioCopy v1.0b3
#
DISCID=7b0e050a
DTITLE=Shogo Hamada - Edge Of Knife
DYEAR=1991
DGENRE=Rock
TTITLE0=Sweet Little Darlin'
TTITLE1=Firestorm
TTITLE2=Everybody Needs Somebody
TTITLE3=Edge Of The Knife
TTITLE4=Nineteen
TTITLE5=Campus Winter
TTITLE6=Love Strategies
TTITLE7=Unchained Love
TTITLE8=Last Show
TTITLE9=Spring,Twenty,1973
EXTD=
EXTT0=
EXTT1=
EXTT2=
EXTT3=
EXTT4=
EXTT5=
EXTT6=
EXTT7=
EXTT8=
EXTT9=
PLAYORDER=
